<svg xmlns="http://www.w3.org/2000/svg" viewBox="0 0 128 128" shape-rendering="crispEdges"><rect x="40" y="8" width="8" height="8" fill="#4A1230"/><rect x="48" y="8" width="8" height="8" fill="#4A1230"/><rect x="72" y="8" width="8" height="8" fill="#4A1230"/><rect x="80" y="8" width="8" height="8" fill="#4A1230"/><rect x="32" y="16" width="8" height="8" fill="#4A1230"/><rect x="40" y="16" width="8" height="8" fill="#FFD23F"/><rect x="48" y="16" width="8" height="8" fill="#FFD23F"/><rect x="56" y="16" width="8" height="8" fill="#4A1230"/><rect x="64" y="16" width="8" height="8" fill="#4A1230"/><rect x="72" y="16" width="8" height="8" fill="#FFD23F"/><rect x="80" y="16" width="8" height="8" fill="#FFD23F"/><rect x="88" y="16" width="8" height="8" fill="#4A1230"/><rect x="32" y="24" width="8" height="8" fill="#4A1230"/><rect x="40" y="24" width="8" height="8" fill="#D9931C"/><rect x="48" y="24" width="8" height="8" fill="#D9931C"/><rect x="56" y="24" width="8" height="8" fill="#FFD23F"/><rect x="64" y="24" width="8" height="8" fill="#FFD23F"/><rect x="72" y="24" width="8" height="8" fill="#D9931C"/><rect x="80" y="24" width="8" height="8" fill="#D9931C"/><rect x="88" y="24" width="8" height="8" fill="#4A1230"/><rect x="16" y="32" width="8" height="8" fill="#4A1230"/><rect x="24" y="32" width="8" height="8" fill="#4A1230"/><rect x="32" y="32" width="8" height="8" fill="#4A1230"/><rect x="40" y="32" width="8" height="8" fill="#4A1230"/><rect x="48" y="32" width="8" height="8" fill="#4A1230"/><rect x="56" y="32" width="8" height="8" fill="#4A1230"/><rect x="64" y="32" width="8" height="8" fill="#4A1230"/><rect x="72" y="32" width="8" height="8" fill="#4A1230"/><rect x="80" y="32" width="8" height="8" fill="#4A1230"/><rect x="88" y="32" width="8" height="8" fill="#4A1230"/><rect x="96" y="32" width="8" height="8" fill="#4A1230"/><rect x="104" y="32" width="8" height="8" fill="#4A1230"/><rect x="16" y="40" width="8" height="8" fill="#4A1230"/><rect x="24" y="40" width="8" height="8" fill="#FFFFFF"/><rect x="32" y="40" width="8" height="8" fill="#FF5F56"/><rect x="40" y="40" width="8" height="8" fill="#FF5F56"/><rect x="48" y="40" width="8" height="8" fill="#FF5F56"/><rect x="56" y="40" width="8" height="8" fill="#FF5F56"/><rect x="64" y="40" width="8" height="8" fill="#C92A4E"/><rect x="72" y="40" width="8" height="8" fill="#C92A4E"/><rect x="80" y="40" width="8" height="8" fill="#C92A4E"/><rect x="88" y="40" width="8" height="8" fill="#C92A4E"/><rect x="96" y="40" width="8" height="8" fill="#C92A4E"/><rect x="104" y="40" width="8" height="8" fill="#4A1230"/><rect x="16" y="48" width="8" height="8" fill="#4A1230"/><rect x="24" y="48" width="8" height="8" fill="#4A1230"/><rect x="32" y="48" width="8" height="8" fill="#4A1230"/><rect x="40" y="48" width="8" height="8" fill="#4A1230"/><rect x="48" y="48" width="8" height="8" fill="#4A1230"/><rect x="56" y="48" width="8" height="8" fill="#4A1230"/><rect x="64" y="48" width="8" height="8" fill="#4A1230"/><rect x="72" y="48" width="8" height="8" fill="#4A1230"/><rect x="80" y="48" width="8" height="8" fill="#4A1230"/><rect x="88" y="48" width="8" height="8" fill="#4A1230"/><rect x="96" y="48" width="8" height="8" fill="#4A1230"/><rect x="104" y="48" width="8" height="8" fill="#4A1230"/><rect x="16" y="56" width="8" height="8" fill="#4A1230"/><rect x="24" y="56" width="8" height="8" fill="#FF5F56"/><rect x="32" y="56" width="8" height="8" fill="#FF5F56"/><rect x="40" y="56" width="8" height="8" fill="#FF5F56"/><rect x="48" y="56" width="8" height="8" fill="#FF5F56"/><rect x="56" y="56" width="8" height="8" fill="#FF5F56"/><rect x="64" y="56" width="8" height="8" fill="#C92A4E"/><rect x="72" y="56" width="8" height="8" fill="#C92A4E"/><rect x="80" y="56" width="8" height="8" fill="#C92A4E"/><rect x="88" y="56" width="8" height="8" fill="#C92A4E"/><rect x="96" y="56" width="8" height="8" fill="#C92A4E"/><rect x="104" y="56" width="8" height="8" fill="#4A1230"/><rect x="16" y="64" width="8" height="8" fill="#4A1230"/><rect x="24" y="64" width="8" height="8" fill="#FF5F56"/><rect x="32" y="64" width="8" height="8" fill="#3D2B17"/><rect x="40" y="64" width="8" height="8" fill="#3D2B17"/><rect x="48" y="64" width="8" height="8" fill="#3D2B17"/><rect x="56" y="64" width="8" height="8" fill="#3D2B17"/><rect x="64" y="64" width="8" height="8" fill="#3D2B17"/><rect x="72" y="64" width="8" height="8" fill="#3D2B17"/><rect x="80" y="64" width="8" height="8" fill="#3D2B17"/><rect x="88" y="64" width="8" height="8" fill="#3D2B17"/><rect x="96" y="64" width="8" height="8" fill="#C92A4E"/><rect x="104" y="64" width="8" height="8" fill="#4A1230"/><rect x="16" y="72" width="8" height="8" fill="#4A1230"/><rect x="24" y="72" width="8" height="8" fill="#FF5F56"/><rect x="32" y="72" width="8" height="8" fill="#3D2B17"/><rect x="40" y="72" width="8" height="8" fill="#3D2B17"/><rect x="48" y="72" width="8" height="8" fill="#FFE9B8"/><rect x="56" y="72" width="8" height="8" fill="#FFE9B8"/><rect x="64" y="72" width="8" height="8" fill="#E3AB5C"/><rect x="72" y="72" width="8" height="8" fill="#E3AB5C"/><rect x="80" y="72" width="8" height="8" fill="#3D2B17"/><rect x="88" y="72" width="8" height="8" fill="#3D2B17"/><rect x="96" y="72" width="8" height="8" fill="#C92A4E"/><rect x="104" y="72" width="8" height="8" fill="#4A1230"/><rect x="16" y="80" width="8" height="8" fill="#4A1230"/><rect x="24" y="80" width="8" height="8" fill="#FF5F56"/><rect x="32" y="80" width="8" height="8" fill="#3D2B17"/><rect x="40" y="80" width="8" height="8" fill="#FFE9B8"/><rect x="48" y="80" width="8" height="8" fill="#FFE9B8"/><rect x="56" y="80" width="8" height="8" fill="#FFFFFF"/><rect x="64" y="80" width="8" height="8" fill="#3D2B17"/><rect x="72" y="80" width="8" height="8" fill="#E3AB5C"/><rect x="80" y="80" width="8" height="8" fill="#E3AB5C"/><rect x="88" y="80" width="8" height="8" fill="#3D2B17"/><rect x="96" y="80" width="8" height="8" fill="#C92A4E"/><rect x="104" y="80" width="8" height="8" fill="#4A1230"/><rect x="16" y="88" width="8" height="8" fill="#4A1230"/><rect x="24" y="88" width="8" height="8" fill="#FF5F56"/><rect x="32" y="88" width="8" height="8" fill="#3D2B17"/><rect x="40" y="88" width="8" height="8" fill="#FFE9B8"/><rect x="48" y="88" width="8" height="8" fill="#FFE9B8"/><rect x="56" y="88" width="8" height="8" fill="#FFE9B8"/><rect x="64" y="88" width="8" height="8" fill="#E3AB5C"/><rect x="72" y="88" width="8" height="8" fill="#E3AB5C"/><rect x="80" y="88" width="8" height="8" fill="#E3AB5C"/><rect x="88" y="88" width="8" height="8" fill="#3D2B17"/><rect x="96" y="88" width="8" height="8" fill="#C92A4E"/><rect x="104" y="88" width="8" height="8" fill="#4A1230"/><rect x="16" y="96" width="8" height="8" fill="#4A1230"/><rect x="24" y="96" width="8" height="8" fill="#FF5F56"/><rect x="32" y="96" width="8" height="8" fill="#3D2B17"/><rect x="40" y="96" width="8" height="8" fill="#3D2B17"/><rect x="48" y="96" width="8" height="8" fill="#3D2B17"/><rect x="56" y="96" width="8" height="8" fill="#3D2B17"/><rect x="64" y="96" width="8" height="8" fill="#3D2B17"/><rect x="72" y="96" width="8" height="8" fill="#3D2B17"/><rect x="80" y="96" width="8" height="8" fill="#3D2B17"/><rect x="88" y="96" width="8" height="8" fill="#3D2B17"/><rect x="96" y="96" width="8" height="8" fill="#C92A4E"/><rect x="104" y="96" width="8" height="8" fill="#4A1230"/><rect x="16" y="104" width="8" height="8" fill="#4A1230"/><rect x="24" y="104" width="8" height="8" fill="#FF5F56"/><rect x="32" y="104" width="8" height="8" fill="#C92A4E"/><rect x="40" y="104" width="8" height="8" fill="#FF5F56"/><rect x="48" y="104" width="8" height="8" fill="#C92A4E"/><rect x="56" y="104" width="8" height="8" fill="#FF5F56"/><rect x="64" y="104" width="8" height="8" fill="#C92A4E"/><rect x="72" y="104" width="8" height="8" fill="#C92A4E"/><rect x="80" y="104" width="8" height="8" fill="#C92A4E"/><rect x="88" y="104" width="8" height="8" fill="#C92A4E"/><rect x="96" y="104" width="8" height="8" fill="#C92A4E"/><rect x="104" y="104" width="8" height="8" fill="#4A1230"/><rect x="16" y="112" width="8" height="8" fill="#4A1230"/><rect x="24" y="112" width="8" height="8" fill="#4A1230"/><rect x="32" y="112" width="8" height="8" fill="#4A1230"/><rect x="40" y="112" width="8" height="8" fill="#4A1230"/><rect x="48" y="112" width="8" height="8" fill="#4A1230"/><rect x="56" y="112" width="8" height="8" fill="#4A1230"/><rect x="64" y="112" width="8" height="8" fill="#4A1230"/><rect x="72" y="112" width="8" height="8" fill="#4A1230"/><rect x="80" y="112" width="8" height="8" fill="#4A1230"/><rect x="88" y="112" width="8" height="8" fill="#4A1230"/><rect x="96" y="112" width="8" height="8" fill="#4A1230"/><rect x="104" y="112" width="8" height="8" fill="#4A1230"/></svg>